<?xml version="1.0" encoding="utf-8"?>
<!-- Generator: Adobe Illustrator 16.0.4, SVG Export Plug-In . SVG Version: 6.00 Build 0)  -->
<!DOCTYPE svg PUBLIC "-//W3C//DTD SVG 1.1 Tiny//EN" "http://www.w3.org/Graphics/SVG/1.1/DTD/svg11-tiny.dtd">
<svg version="1.1" baseProfile="tiny" id="Layer_1" xmlns="http://www.w3.org/2000/svg" xmlns:xlink="http://www.w3.org/1999/xlink"
	 x="0px" y="0px" width="197.692px" height="236.826px" viewBox="0 0 197.692 236.826" xml:space="preserve">
<g>
	<g>
		<g>
			<path fill="#2F1E10" d="M32.449,230.518c-0.179-0.438-0.361-1.404-0.355-2.004v-7.396c0.005-1.323-0.522-2.429-1.493-3.153
				c-0.968-0.728-2.336-1.092-4.023-1.092c-3.049-0.018-5.223,1.447-5.836,3.955c-0.061,0.241,0.134,0.442,0.345,0.442h0.966
				c0.155,0,0.291-0.101,0.339-0.249c0.518-1.612,1.884-2.505,4.186-2.521c0.931-0.001,1.938,0.14,2.662,0.539
				c0.726,0.406,1.191,0.989,1.202,2.08c-0.016,0.631-0.311,0.942-1.096,1.255c-0.777,0.289-1.969,0.439-3.412,0.576
				c-1.414,0.132-2.846,0.363-3.971,0.981c-1.127,0.607-1.93,1.686-1.917,3.289c-0.005,1.38,0.697,2.426,1.677,3.07
				c0.979,0.649,2.228,0.944,3.432,0.945h0.003c2.246,0,4.105-0.668,5.314-1.826c0.051,0.545,0.171,1.002,0.358,1.395
				c0.058,0.124,0.184,0.203,0.322,0.203h0.966C32.376,231.005,32.538,230.743,32.449,230.518z M28.845,228.655
				c-0.98,0.617-2.334,0.929-3.69,0.927c-0.598,0.003-1.49-0.143-2.188-0.521c-0.698-0.388-1.188-0.935-1.193-1.869
				c0.011-0.819,0.258-1.327,0.906-1.768c0.655-0.435,1.772-0.742,3.423-0.903c1.523-0.137,3.157-0.257,4.338-0.934v2.309
				C30.433,227.155,29.823,228.031,28.845,228.655z"/>
			<path fill="#2F1E10" d="M40.381,218.855c0.197,0,0.355-0.155,0.355-0.355v-0.939c0-0.195-0.156-0.357-0.355-0.357h-3.154v-2.44
				c0-0.193-0.157-0.355-0.355-0.355h-0.966c-0.196,0-0.356,0.16-0.356,0.355v11.362c0,1.433,0.381,2.657,1.128,3.533
				c0.744,0.875,1.851,1.37,3.185,1.37c0.005,0,0.01,0,0.01,0c0.177,0,0.356-0.008,0.542-0.024c0.182-0.017,0.323-0.171,0.323-0.354
				v-0.864c0-0.21-0.177-0.362-0.368-0.355c-0.075,0.003-0.149,0.004-0.219,0.004c-2.134-0.036-2.874-1.23-2.923-3.309v-7.271
				H40.381z"/>
			<path fill="#2F1E10" d="M49.255,216.874c-3.823,0.002-6.885,3.274-6.892,7.269c0.007,4,3.11,7.159,7.044,7.168
				c0.017,0,0.034,0,0.05,0c3.174,0,5.457-1.688,6.391-4.618c0.083-0.257-0.126-0.466-0.338-0.466h-0.991
				c-0.151,0-0.284,0.093-0.335,0.231c-0.626,1.643-1.845,3.184-4.776,3.199c-2.872-0.005-5.181-2.171-5.377-5.21H55.79
				c0.199,0,0.36-0.169,0.354-0.368c-0.001-0.02,0-0.048,0-0.082C56.143,220.543,53.365,216.886,49.255,216.874z M44.192,222.797
				c0.557-2.457,2.617-4.247,5.062-4.247c2.42-0.003,4.503,1.79,5.084,4.247H44.192z"/>
			<path fill="#2F1E10" d="M137.272,216.874c-3.822,0.002-6.884,3.274-6.891,7.269c0.007,4,3.108,7.159,7.043,7.167
				c0.017,0.001,0.032,0.001,0.05,0.001c3.174,0,5.457-1.688,6.39-4.618c0.084-0.257-0.125-0.467-0.337-0.467h-0.992
				c-0.15,0-0.283,0.094-0.335,0.232c-0.625,1.642-1.844,3.184-4.775,3.199c-2.871-0.005-5.181-2.171-5.377-5.21h11.759
				c0.2,0,0.36-0.17,0.354-0.368c-0.001-0.02,0-0.049,0-0.083C144.159,220.543,141.382,216.886,137.272,216.874z M132.21,222.796
				c0.557-2.457,2.617-4.247,5.062-4.246c2.419-0.003,4.504,1.79,5.083,4.246H132.21z"/>
			<path fill="#2F1E10" d="M190.804,216.874c-3.822,0.002-6.884,3.274-6.891,7.269c0.007,4,3.109,7.159,7.044,7.168
				c0.016,0,0.032,0,0.049,0c3.174,0,5.457-1.688,6.39-4.618c0.085-0.257-0.125-0.466-0.337-0.466h-0.992
				c-0.15,0-0.283,0.093-0.334,0.231c-0.626,1.643-1.845,3.184-4.775,3.199c-2.871-0.005-5.182-2.171-5.378-5.21h11.758
				c0.202,0,0.363-0.169,0.355-0.368c-0.001-0.02,0-0.048,0-0.082C197.691,220.543,194.913,216.886,190.804,216.874z
				 M185.742,222.797c0.556-2.457,2.617-4.247,5.062-4.247c2.419-0.003,4.503,1.79,5.084,4.247H185.742z"/>
			<path fill="#2F1E10" d="M65.356,216.953c-0.323-0.035-0.634-0.051-0.937-0.051c-1.76-0.002-3.213,0.565-4.21,1.598
				c-0.998,1.03-1.525,2.502-1.525,4.246v7.905c0,0.196,0.161,0.356,0.356,0.356h0.941c0.195,0,0.354-0.159,0.354-0.356v-7.905
				c0.039-2.838,1.529-4.21,4.273-4.25c0.218,0,0.445,0.011,0.68,0.03c0.212,0.017,0.386-0.15,0.386-0.354v-0.864
				C65.675,217.124,65.536,216.972,65.356,216.953z"/>
			<path fill="#2F1E10" d="M104.319,216.953c-0.322-0.035-0.634-0.051-0.936-0.051c-1.76-0.002-3.211,0.565-4.21,1.598
				c-0.998,1.03-1.526,2.502-1.525,4.246v7.905c0,0.196,0.161,0.356,0.357,0.356h0.941c0.194,0,0.354-0.159,0.354-0.356v-7.905
				c0.039-2.838,1.528-4.21,4.271-4.25c0.22,0,0.445,0.011,0.68,0.03c0.213,0.017,0.388-0.15,0.388-0.354v-0.864
				C104.64,217.124,104.501,216.972,104.319,216.953z"/>
			<path fill="#2F1E10" d="M80.364,213.354c0.1,0,0.202,0.003,0.31,0.01c0.207,0.015,0.378-0.154,0.378-0.355v-0.865
				c0-0.182-0.141-0.336-0.325-0.353c-0.185-0.018-0.362-0.026-0.535-0.026c-1.341-0.003-2.454,0.492-3.197,1.365
				c-0.748,0.874-1.13,2.093-1.13,3.514v0.56h-1.422c-0.192,0-0.355,0.156-0.355,0.356v0.94c0,0.197,0.161,0.355,0.355,0.355h1.422
				v11.795c0,0.198,0.159,0.355,0.358,0.355h0.964c0.196,0,0.358-0.159,0.358-0.355v-11.795h3.151c0.192,0,0.357-0.156,0.357-0.355
				v-0.94c0-0.198-0.163-0.356-0.357-0.356h-3.153l0.002-0.482C77.591,214.571,78.336,213.388,80.364,213.354z"/>
			<path fill="#2F1E10" d="M88.448,216.874c-3.796,0.003-6.879,3.273-6.888,7.268c0.008,3.951,3.095,7.167,6.888,7.169
				c3.815-0.003,6.905-3.219,6.912-7.169C95.353,220.146,92.268,216.877,88.448,216.874z M93.684,224.142
				c-0.001,3.073-2.35,5.563-5.236,5.567c-2.862-0.004-5.236-2.496-5.236-5.567c0.001-3.151,2.378-5.662,5.236-5.667
				C91.332,218.48,93.681,220.989,93.684,224.142z"/>
			<path fill="#2F1E10" d="M121.413,216.874c-2.126,0-4.003,1.041-5.235,2.646v-1.96c0-0.193-0.16-0.356-0.355-0.356h-0.94
				c-0.195,0-0.357,0.159-0.357,0.356v18.91c0,0.205,0.169,0.355,0.357,0.355h0.94c0.194,0,0.355-0.16,0.355-0.355v-7.769
				c1.233,1.587,3.111,2.609,5.235,2.609c3.818-0.003,6.908-3.219,6.913-7.168C128.321,220.147,125.235,216.877,121.413,216.874z
				 M126.65,224.143c-0.001,3.045-2.347,5.51-5.237,5.515c-2.862-0.005-5.235-2.473-5.235-5.515c0-3.098,2.376-5.586,5.235-5.591
				C124.301,218.557,126.648,221.042,126.65,224.143z"/>
			<path fill="#2F1E10" d="M169.225,216.874c-2.126,0-4.005,1.041-5.236,2.646v-1.96c0-0.193-0.161-0.356-0.356-0.356h-0.941
				c-0.193,0-0.355,0.159-0.355,0.356v18.91c0,0.205,0.171,0.355,0.355,0.355h0.941c0.195,0,0.356-0.16,0.356-0.355v-7.769
				c1.232,1.587,3.112,2.609,5.236,2.609c3.814-0.003,6.907-3.219,6.913-7.168C176.132,220.147,173.046,216.877,169.225,216.874z
				 M174.46,224.143c-0.002,3.045-2.346,5.51-5.235,5.515c-2.864-0.005-5.236-2.473-5.236-5.515c0-3.098,2.375-5.586,5.236-5.591
				C172.112,218.557,174.457,221.042,174.46,224.143z"/>
			<path fill="#2F1E10" d="M153.108,216.874c-3.798,0.003-6.881,3.273-6.888,7.269c0.007,3.95,3.095,7.166,6.888,7.168
				c3.817-0.003,6.907-3.219,6.914-7.168C160.016,220.147,156.93,216.877,153.108,216.874z M153.108,229.709
				c-2.86-0.006-5.236-2.496-5.236-5.567c0.001-3.152,2.379-5.663,5.236-5.668c2.885,0.006,5.234,2.515,5.236,5.668
				C158.345,227.215,155.996,229.704,153.108,229.709z"/>
			<path fill="#2F1E10" d="M183.189,229.43c-0.077,0.003-0.151,0.004-0.218,0.004c-2.135-0.034-2.874-1.231-2.922-3.309v-14.386
				c0-0.201-0.154-0.356-0.355-0.356h-0.939c-0.198,0-0.355,0.157-0.355,0.356v14.386c0,1.432,0.372,2.656,1.113,3.531
				c0.736,0.876,1.838,1.372,3.17,1.372c0,0,0.009,0,0.014,0c0.174,0,0.353-0.008,0.536-0.024c0.186-0.017,0.325-0.17,0.325-0.354
				v-0.864C183.558,229.568,183.373,229.424,183.189,229.43z"/>
			<path fill="#2F1E10" d="M2.319,229.257c0.3,1.522,1.522,1.977,2.483,1.977c0.961,0,2.167-0.454,2.469-1.997l1.737-8.865
				c0.04-0.198,0.273-0.199,0.313,0c0,0,1.743,8.877,1.746,8.886c0.299,1.522,1.522,1.977,2.483,1.977
				c0.961,0,2.167-0.454,2.47-1.997c0-0.003,2.308-11.79,2.308-11.79c0.045-0.22-0.125-0.425-0.348-0.425h-0.987
				c-0.168,0-0.317,0.122-0.348,0.287l-2.271,11.588c-0.083,0.421-0.448,0.658-0.834,0.658c-0.386,0-0.749-0.229-0.835-0.664
				c0,0-1.636-8.339-1.638-8.352c-0.236-1.148-0.776-2.004-1.881-2.005c-1.106,0-1.7,0.857-1.925,2.011
				c-0.003,0.017-1.634,8.352-1.634,8.352c-0.084,0.421-0.448,0.658-0.834,0.658c-0.386,0-0.75-0.229-0.836-0.664l-2.267-11.582
				c-0.033-0.166-0.179-0.287-0.349-0.287H0.356c-0.21,0-0.396,0.191-0.349,0.425L2.319,229.257z"/>
		</g>
	</g>
	<g>
		<g>
			<path fill="#F26322" d="M65.295,96.439c0,0.014-0.004,9.847-0.004,9.847c0,3.365,2.733,6.098,6.097,6.098
				c3.361,0,6.092-2.733,6.092-6.098v-9.805c0-13.652,1.691-15.901,1.691-15.901S65.327,85.121,65.295,96.439z"/>
			<circle fill="#F26322" cx="71.389" cy="134.638" r="3.657"/>
			<circle fill="#F26322" cx="71.389" cy="122.236" r="4.876"/>
			<path fill="#F26322" d="M94.26,34.931c0-3.364-2.731-6.097-6.098-6.097c-3.361,0-6.092,2.733-6.092,6.097l0.001,28.206
				c0,0.003,0,0.006,0,0.009C82.07,76.79,80.38,79.039,80.38,79.039S94.26,74.485,94.26,63.137V34.931z"/>
			<circle fill="#F26322" cx="88.166" cy="18.983" r="4.875"/>
		</g>
		<g>
			<path fill="#2F1E10" d="M82.071,96.439c0,0.014-0.001,44.129-0.001,44.129c0,3.366,2.731,6.098,6.096,6.098
				c3.363,0,6.092-2.731,6.092-6.098V96.481c0-13.652,1.691-15.901,1.691-15.901S82.104,85.121,82.071,96.439z"/>
			<circle fill="#2F1E10" cx="88.164" cy="168.922" r="3.657"/>
			<circle fill="#2F1E10" cx="88.164" cy="156.518" r="4.878"/>
			<path fill="#2F1E10" d="M104.94,14.728c-3.361,0-6.092,2.731-6.092,6.096c0,0,0,42.319,0,42.321
				c0,13.644-1.691,15.893-1.691,15.893s13.881-4.553,13.881-15.902V20.824C111.038,17.459,108.306,14.728,104.94,14.728z"/>
			<circle fill="#2F1E10" cx="104.943" cy="4.876" r="4.876"/>
		</g>
		<g>
			<path fill="#68BAD6" d="M112.726,80.58c0,0-13.879,4.553-13.879,15.901v61.231c0,3.362,2.732,6.096,6.096,6.096
				c3.362,0,6.095-2.733,6.095-6.096c0,0-0.003-61.245-0.003-61.25C111.038,82.827,112.726,80.58,112.726,80.58z"/>
			<circle fill="#68BAD6" cx="104.942" cy="186.063" r="3.657"/>
			<circle fill="#68BAD6" cx="104.942" cy="173.659" r="4.877"/>
			<path fill="#68BAD6" d="M121.717,42.936c-3.36,0-6.092,2.732-6.092,6.097v14.104c0,13.652-1.691,15.902-1.691,15.902
				s13.881-4.553,13.881-15.902V49.032C127.814,45.667,125.083,42.936,121.717,42.936z"/>
			<circle fill="#68BAD6" cx="121.72" cy="33.085" r="4.876"/>
		</g>
		<g>
			<g>
				<path fill="#B0BA25" d="M115.623,96.481v26.947c0,3.363,2.731,6.098,6.094,6.098c3.364,0,6.095-2.735,6.095-6.098V96.481
					c0-13.652,1.69-15.901,1.69-15.901S115.623,85.132,115.623,96.481z"/>
				<circle fill="#B0BA25" cx="121.717" cy="151.779" r="3.657"/>
				<path fill="#B0BA25" d="M121.717,134.5c-2.692,0-4.874,2.185-4.874,4.876s2.182,4.875,4.874,4.875
					c2.695,0,4.877-2.183,4.877-4.875S124.412,134.5,121.717,134.5z"/>
			</g>
			<g>
				<circle fill="#B0BA25" cx="71.389" cy="47.19" r="4.876"/>
				<path fill="#B0BA25" d="M71.389,57.043c-3.366,0-6.096,2.727-6.096,6.093c0,13.635-1.689,15.902-1.689,15.902
					s13.879-4.553,13.879-15.902C77.483,59.771,74.753,57.043,71.389,57.043z"/>
			</g>
		</g>
	</g>
</g>
</svg>
